<?xml version="1.0" encoding="UTF-8" standalone="no"?>
<!DOCTYPE svg PUBLIC "-//W3C//DTD SVG 1.1//EN" "http://www.w3.org/Graphics/SVG/1.1/DTD/svg11.dtd">
<svg width="100%" height="100%" viewBox="0 0 3078 2402" version="1.1" xmlns="http://www.w3.org/2000/svg" xmlns:xlink="http://www.w3.org/1999/xlink" xml:space="preserve" xmlns:serif="http://www.serif.com/" style="fill-rule:evenodd;clip-rule:evenodd;stroke-linejoin:round;stroke-miterlimit:2;">
    <g>
        <path d="M1441.5,250.5C1530.78,245.916 1606.28,275.583 1668,339.5C1718.29,396.809 1742.12,463.809 1739.5,540.5C1677.88,534.297 1617.21,539.13 1557.5,555C1570.25,511.939 1559.59,475.939 1525.5,447C1490.28,422.439 1453.61,420.106 1415.5,440C1374.05,468.336 1359.88,506.836 1373,555.5C1389,596.918 1419.17,618.918 1463.5,621.5C1474.4,621.637 1485.07,620.137 1495.5,617C1599.99,567.877 1707.65,559.877 1818.5,593C1952.85,637.676 2047.01,725.51 2101,856.5C2135.14,947.638 2139.81,1040.3 2115,1134.5C2076.69,1262.79 1997.86,1356.96 1878.5,1417C1758.75,1471.63 1637.75,1474.63 1515.5,1426C1390.06,1370.56 1305.9,1277.73 1263,1147.5C1227.75,1024.17 1241.08,906.503 1303,794.5C1304.52,791.445 1306.52,788.778 1309,786.5C1365.78,819.226 1426.95,833.559 1492.5,829.5C1427.63,900.273 1404.8,982.94 1424,1077.5C1447.74,1168.91 1503.24,1232.74 1590.5,1269C1676.01,1298.85 1757.34,1290.18 1834.5,1243C1921.69,1181.77 1962.19,1097.61 1956,990.5C1943.48,894.894 1895.31,823.727 1811.5,777C1741.86,742.054 1670.19,737.388 1596.5,763C1591.5,764.667 1586.5,766.333 1581.5,768C1568.48,774.368 1555.48,780.701 1542.5,787C1432.31,814.484 1338.15,787.317 1260,705.5C1201.51,635.528 1180.84,555.528 1198,465.5C1219.71,377.13 1271.54,313.296 1353.5,274C1381.85,262.037 1411.18,254.204 1441.5,250.5Z" style="fill:rgb(255,255,254);"/>
    </g>
    <g>
        <path d="M1009.5,444.5C1009.56,443.957 1009.89,443.624 1010.5,443.5C1011.17,581.999 1011.83,720.333 1012.5,858.5C1012.44,859.043 1012.11,859.376 1011.5,859.5C1010.83,721.001 1010.17,582.667 1009.5,444.5Z" style="fill:rgb(83,83,83);"/>
    </g>
    <g>
        <path d="M1771.5,521.5C1782.98,522.817 1790.31,528.984 1793.5,540C1793.67,543.439 1792,545.439 1788.5,546C1782.48,546.575 1776.48,546.409 1770.5,545.5C1770.2,537.414 1770.53,529.414 1771.5,521.5Z" style="fill:rgb(255,255,254);"/>
    </g>
    <g>
        <path d="M293.5,802.5C293.168,867.002 293.501,931.335 294.5,995.5C294.44,996.043 294.107,996.376 293.5,996.5C292.168,931.668 292.168,867.001 293.5,802.5Z" style="fill:rgb(201,201,201);"/>
    </g>
    <g>
        <path d="M1010,548.157C1010.5,651.844 1011,755.626 1011.5,859.5C1012.11,859.376 1012.44,859.043 1012.5,858.5C1091.27,819.616 1169.93,780.449 1248.5,741C1249.5,740.333 1250.5,740.333 1251.5,741C1260.46,749.802 1269.79,758.136 1279.5,766C1243.87,823.712 1221.2,886.212 1211.5,953.5C1144.92,986.705 1078.42,1020.04 1012,1053.5C1011.92,1098.33 1011.83,1143.17 1011.75,1188L1011.25,1457C1011.17,1501.83 1011.08,1546.67 1011,1591.5C1001.8,1743.47 934.963,1862.3 810.5,1948C711.236,2010.39 603.569,2032.05 487.5,2013C379.224,1991.61 290.391,1938.44 221,1853.5C143.246,1752.5 112.579,1638.5 129,1511.5C150.536,1383.18 214.37,1282.01 320.5,1208C328.5,1203 336.5,1198 344.5,1193C508.744,1110.96 672.911,1028.79 837,946.5C837.833,872.498 837.667,798.498 836.5,724.5C655.807,814.847 475.14,905.18 294.5,995.5C293.501,931.335 293.168,867.002 293.5,802.5C531.849,682.659 770.516,563.325 1009.5,444.5L1010,548.157ZM836.5,1140.5C837.666,1293.33 837.833,1446.33 837,1599.5C826.433,1691.53 781.933,1761.69 703.5,1810C627.161,1851.94 548.161,1857.61 466.5,1827C365.043,1781.17 308.876,1702.67 298,1591.5C296.473,1481.51 342.306,1398.01 435.5,1341C569.506,1274.66 703.173,1207.83 836.5,1140.5Z" style="fill:rgb(255,255,254);"/>
    </g>
    <g>
        <path d="M2718.5,1299.5L2891.5,1299.5L2891.5,2019.5L2718.5,2019.5C2718.83,2011.14 2718.5,2002.81 2717.5,1994.5C2645.25,2021.64 2573.92,2019.47 2503.5,1988C2425.07,1949.23 2374.91,1887.39 2353,1802.5C2332.09,1695.23 2361.92,1605.06 2442.5,1532C2517.04,1472.73 2600.7,1454.73 2693.5,1478C2701.6,1480.53 2709.6,1483.37 2717.5,1486.5C2718.5,1424.17 2718.83,1361.84 2718.5,1299.5ZM2604.5,1643.5C2652.79,1640.38 2687.62,1660.38 2709,1703.5C2724.1,1747.36 2714.6,1784.86 2680.5,1816C2650.58,1838.23 2617.91,1843.23 2582.5,1831C2536.68,1808.88 2516.85,1772.38 2523,1721.5C2534.09,1678.57 2561.26,1652.57 2604.5,1643.5Z" style="fill:rgb(255,255,254);"/>
    </g>
    <g>
        <rect x="1410.5" y="1846.5" width="722" height="174" style="fill:rgb(154,88,255);"/>
    </g>
</svg>
