<svg preserveAspectRatio="none" width="100%" height="100%" overflow="visible" style="display: block;" viewBox="0 0 29.055 30.0557" fill="none" xmlns="http://www.w3.org/2000/svg">
<g id="Group">
<path id="Vector" d="M3.27647 16.6963C2.77744 16.5977 2.27197 16.5351 1.76397 16.5088C1.48565 16.5144 1.21054 16.5695 0.951471 16.6713C0.703171 16.7739 0.490347 16.9469 0.339288 17.169C0.188229 17.3912 0.105553 17.6527 0.101471 17.9213L0.201471 18.9338L0.413971 20.0463C0.413971 20.1391 0.450846 20.2282 0.516484 20.2938C0.582121 20.3594 0.671145 20.3963 0.763971 20.3963C0.856797 20.3963 0.945821 20.3594 1.01146 20.2938C1.0771 20.2282 1.11397 20.1391 1.11397 20.0463L1.28897 18.9463L1.42647 18.0838C1.42647 17.9713 1.51397 17.9213 1.61397 17.8838C1.70264 17.8273 1.79966 17.7851 1.90147 17.7588C2.35287 17.6487 2.8129 17.5776 3.27647 17.5463C3.38256 17.5463 3.4843 17.5042 3.55931 17.4292C3.63433 17.3541 3.67647 17.2524 3.67647 17.1463C3.67647 17.0402 3.63433 16.9385 3.55931 16.8635C3.4843 16.7885 3.38256 16.7463 3.27647 16.7463V16.6963Z" fill="var(--fill-0, #7F5AF0)"/>
<path id="Vector_2" d="M11.1139 17.5463C11.5772 17.5735 12.0372 17.6404 12.4889 17.7463C12.594 17.7747 12.6948 17.8167 12.7889 17.8713C12.8347 17.8834 12.8759 17.9089 12.907 17.9445C12.9382 17.9801 12.958 18.0243 12.9639 18.0713L13.1139 18.9338L13.2764 20.0463C13.2764 20.0933 13.2859 20.1399 13.3042 20.1832C13.3226 20.2265 13.3495 20.2656 13.3833 20.2983C13.4172 20.331 13.4572 20.3565 13.5012 20.3733C13.5451 20.3901 13.5919 20.3979 13.6389 20.3963C13.7308 20.3932 13.818 20.3553 13.883 20.2903C13.948 20.2253 13.9858 20.1381 13.9889 20.0463L14.1764 18.9588L14.2764 17.9463C14.2724 17.6777 14.1897 17.4161 14.0386 17.194C13.8876 16.9718 13.6747 16.7988 13.4264 16.6963C13.1674 16.5944 12.8923 16.5394 12.6139 16.5338C12.1059 16.56 11.6005 16.6227 11.1014 16.7213C10.9954 16.7213 10.8936 16.7634 10.8186 16.8384C10.7436 16.9134 10.7014 17.0152 10.7014 17.1213C10.7014 17.2274 10.7436 17.3291 10.8186 17.4041C10.8936 17.4791 10.9954 17.5213 11.1014 17.5213L11.1139 17.5463Z" fill="var(--fill-0, #7F5AF0)"/>
<path id="Vector_3" d="M3.27648 29.0088C2.81291 28.9775 2.35289 28.9064 1.90148 28.7963C1.79967 28.77 1.70265 28.7278 1.61398 28.6713C1.51398 28.6713 1.43898 28.5838 1.42648 28.4713L1.28898 27.6213L1.11398 26.5088C1.11398 26.416 1.07711 26.3269 1.01147 26.2613C0.945833 26.1957 0.856809 26.1588 0.763983 26.1588C0.671157 26.1588 0.582134 26.1957 0.516496 26.2613C0.450858 26.3269 0.413983 26.416 0.413983 26.5088L0.213983 27.5963L0.113983 28.6088C0.118065 28.8774 0.200742 29.1389 0.351801 29.3611C0.502859 29.5832 0.715683 29.7562 0.963983 29.8588C1.21945 29.9753 1.4958 30.0391 1.77648 30.0463C2.2815 30.003 2.78278 29.9236 3.27648 29.8088C3.33008 29.8088 3.38314 29.7981 3.4325 29.7772C3.48186 29.7563 3.52653 29.7257 3.56384 29.6872C3.60115 29.6488 3.63035 29.6032 3.6497 29.5532C3.66905 29.5032 3.67816 29.4499 3.67648 29.3963C3.67028 29.2934 3.62578 29.1966 3.55175 29.1248C3.47772 29.0531 3.37952 29.0117 3.27648 29.0088Z" fill="var(--fill-0, #7F5AF0)"/>
<path id="Vector_4" d="M13.9889 26.5213C13.9857 26.4295 13.9479 26.3422 13.8829 26.2773C13.8179 26.2123 13.7307 26.1744 13.6389 26.1713C13.5918 26.1696 13.545 26.1774 13.5011 26.1943C13.4572 26.2111 13.4171 26.2366 13.3832 26.2693C13.3494 26.3019 13.3225 26.3411 13.3041 26.3844C13.2858 26.4277 13.2763 26.4743 13.2764 26.5213L13.1139 27.6338L12.9639 28.4838C12.9579 28.5308 12.9381 28.5749 12.9069 28.6106C12.8758 28.6462 12.8346 28.6717 12.7889 28.6838C12.6947 28.7383 12.5939 28.7804 12.4889 28.8088C12.0371 28.9147 11.5771 28.9816 11.1139 29.0088C11.0619 29.0071 11.0102 29.0159 10.9617 29.0346C10.9133 29.0533 10.869 29.0816 10.8317 29.1178C10.7944 29.1539 10.7647 29.1972 10.7445 29.2451C10.7242 29.2929 10.7138 29.3443 10.7139 29.3963C10.7104 29.4492 10.7179 29.5023 10.7359 29.5523C10.7538 29.6022 10.7818 29.6479 10.8181 29.6866C10.8544 29.7253 10.8983 29.7561 10.9471 29.7771C10.9958 29.7981 11.0483 29.8089 11.1014 29.8088C11.6004 29.9074 12.1058 29.97 12.6139 29.9963C12.8928 29.997 13.1691 29.9417 13.4264 29.8338C13.6747 29.7312 13.8875 29.5582 14.0385 29.3361C14.1896 29.1139 14.2723 28.8524 14.2764 28.5838L14.1764 27.5713L13.9889 26.5213Z" fill="var(--fill-0, #7F5AF0)"/>
<path id="Vector_5" d="M5.41398 17.6213C5.82648 17.6213 6.22648 17.7088 6.66398 17.7213H7.20148L7.71398 17.6463C8.13898 17.5713 8.53898 17.4713 8.96398 17.4338C9.06811 17.4407 9.17083 17.4067 9.25024 17.339C9.32964 17.2713 9.37943 17.1752 9.38898 17.0713C9.39602 17.019 9.39198 16.9659 9.3771 16.9153C9.36223 16.8648 9.33686 16.8179 9.30266 16.7778C9.26845 16.7377 9.22618 16.7053 9.17859 16.6826C9.131 16.6599 9.07917 16.6476 9.02648 16.6463C8.58815 16.5241 8.14096 16.4364 7.68898 16.3838H7.10148C6.91158 16.3946 6.72319 16.4239 6.53898 16.4713C6.109 16.5921 5.69067 16.751 5.28898 16.9463C5.24384 16.9553 5.20092 16.9731 5.16267 16.9987C5.12441 17.0244 5.09158 17.0573 5.06605 17.0956C5.04051 17.1339 5.02277 17.1768 5.01384 17.222C5.0049 17.2672 5.00495 17.3136 5.01398 17.3588C5.02301 17.4039 5.04084 17.4468 5.06646 17.4851C5.09207 17.5233 5.12497 17.5562 5.16328 17.5817C5.20158 17.6072 5.24454 17.625 5.2897 17.6339C5.33486 17.6429 5.38134 17.6428 5.42648 17.6338L5.41398 17.6213Z" fill="var(--fill-0, #7F5AF0)"/>
<path id="Vector_6" d="M9.01385 28.7963C8.60135 28.7963 8.18885 28.7088 7.76385 28.6963H7.21385L6.68885 28.7963C6.26385 28.8713 5.87635 28.9713 5.43885 29.0088C5.33336 29.0017 5.22915 29.0353 5.14774 29.1027C5.06633 29.1702 5.01392 29.2663 5.00135 29.3713C4.99439 29.4754 5.0284 29.5782 5.09612 29.6576C5.16385 29.737 5.25993 29.7868 5.36385 29.7963C5.81478 29.9162 6.27458 29.9998 6.73885 30.0463C6.93031 30.0588 7.12239 30.0588 7.31385 30.0463C7.50796 30.0365 7.7006 30.0072 7.88885 29.9588C8.31883 29.838 8.73716 29.6791 9.13885 29.4838C9.22555 29.4627 9.3009 29.4092 9.3495 29.3344C9.3981 29.2595 9.41627 29.169 9.40031 29.0812C9.38435 28.9934 9.33545 28.915 9.26362 28.862C9.19178 28.8091 9.10244 28.7856 9.01385 28.7963Z" fill="var(--fill-0, #7F5AF0)"/>
<path id="Vector_7" d="M18.6639 10.6963C17.9014 11.5463 17.1264 12.4463 16.2514 13.4338L15.9639 10.5088C15.9639 10.0338 15.9014 9.57129 15.9014 9.10879C15.9014 8.64629 15.9014 8.17129 15.9764 7.70879C15.9854 7.66349 15.9849 7.61683 15.9751 7.57172C15.9653 7.5266 15.9463 7.48397 15.9194 7.44648C15.8924 7.40899 15.8581 7.37742 15.8184 7.35374C15.7788 7.33005 15.7347 7.31475 15.6889 7.30879C15.5978 7.29433 15.5047 7.31642 15.4298 7.37025C15.3549 7.42409 15.3043 7.50532 15.2889 7.59629C15.0943 8.56072 14.9731 9.53852 14.9264 10.5213C14.9014 11.0088 14.9264 11.7713 14.9264 12.3713V13.6213V14.5213C14.9473 14.6587 14.9851 14.7931 15.0389 14.9213C15.1183 15.0568 15.2267 15.1731 15.3564 15.2617C15.4861 15.3503 15.6338 15.4091 15.7889 15.4338C16.2688 15.5053 16.754 15.5346 17.2389 15.5213H20.4389C21.1377 15.5268 21.8352 15.5811 22.5264 15.6838C22.629 15.7022 22.7348 15.6799 22.8212 15.6215C22.9076 15.5632 22.9678 15.4734 22.9889 15.3713C22.9998 15.3203 23.0003 15.2677 22.9903 15.2165C22.9804 15.1654 22.9602 15.1168 22.931 15.0736C22.9018 15.0304 22.8643 14.9936 22.8205 14.9653C22.7768 14.9369 22.7278 14.9177 22.6764 14.9088C21.9659 14.7304 21.2431 14.605 20.5139 14.5338C19.4514 14.4088 18.3889 14.3713 17.2889 14.2588H16.7014C17.7264 13.3338 18.6389 12.5463 19.5264 11.6713C20.519 10.7 21.4738 9.69089 22.3889 8.64629C23.2764 7.54629 24.2514 6.29629 25.4014 4.89629C25.4581 4.82736 25.4863 4.73939 25.4803 4.65035C25.4743 4.56132 25.4345 4.47795 25.369 4.41729C25.3036 4.35663 25.2174 4.32326 25.1282 4.324C25.0389 4.32475 24.9534 4.35954 24.8889 4.42129C23.3764 5.88379 22.0889 7.07129 20.9139 8.27129C20.1389 9.07129 19.4139 9.85879 18.6639 10.6963Z" fill="var(--fill-0, #7F5AF0)"/>
<path id="Vector_8" d="M28.589 2.8338C28.559 2.14674 28.3843 1.47374 28.0765 0.858799C27.5713 0.547226 26.9945 0.370746 26.4015 0.346299C22.4849 0.0311802 18.554 -0.0689701 14.6265 0.0462986C10.6969 0.0541617 6.77195 0.317215 2.87646 0.833799C2.32826 0.879425 1.80403 1.07872 1.36396 1.4088C1.11821 1.75209 0.963399 2.15202 0.913963 2.5713C0.848503 3.40335 0.848503 4.23925 0.913963 5.0713V14.5838C0.912209 14.6302 0.920062 14.6765 0.937031 14.7198C0.953999 14.763 0.979717 14.8023 1.01257 14.8352C1.04543 14.868 1.08472 14.8938 1.12798 14.9107C1.17123 14.9277 1.21753 14.9356 1.26396 14.9338C1.35679 14.9338 1.44581 14.8969 1.51145 14.8313C1.57709 14.7656 1.61396 14.6766 1.61396 14.5838L1.80146 5.0463C1.80146 4.5338 1.73896 3.7963 1.80146 3.0588C1.80163 2.71293 1.90145 2.37443 2.08896 2.0838C2.31658 1.99854 2.55066 1.93166 2.78896 1.8838C5.853 1.49694 8.9381 1.30073 12.0265 1.2963C17.3265 1.2088 23.2765 1.2963 25.9765 1.5963C26.3265 1.5963 26.7265 1.5963 26.964 1.6713C27.1433 2.06328 27.2329 2.4903 27.2265 2.9213C27.684 7.8117 27.8926 12.7222 27.8515 17.6338C27.8957 20.5354 27.7579 23.4369 27.439 26.3213C27.3741 26.7959 27.2695 27.2642 27.1265 27.7213C27.1265 27.8588 27.0515 27.9713 26.989 28.0088C26.5469 28.2 26.0796 28.3263 25.6015 28.3838C24.8233 28.5098 24.0388 28.5932 23.2515 28.6338H21.114C19.414 28.6338 17.7265 28.4838 16.039 28.4838C15.9329 28.4838 15.8311 28.5259 15.7561 28.601C15.6811 28.676 15.639 28.7777 15.639 28.8838C15.639 28.9899 15.6811 29.0916 15.7561 29.1666C15.8311 29.2417 15.9329 29.2838 16.039 29.2838C17.7265 29.2838 19.414 29.4463 21.039 29.5088H23.239C23.764 29.5088 24.789 29.4213 25.739 29.2838C26.3302 29.2262 26.9083 29.0743 27.4515 28.8338C27.8442 28.5234 28.1072 28.0777 28.189 27.5838C28.7977 24.2864 29.0741 20.9363 29.014 17.5838C29.1335 12.6631 28.9916 7.73947 28.589 2.8338Z" fill="var(--fill-0, #7F5AF0)"/>
<path id="Vector_9" d="M0.701423 24.8588C0.75396 24.8571 0.805663 24.8452 0.853577 24.8236C0.901491 24.802 0.944676 24.7711 0.980664 24.7328C1.01665 24.6945 1.04474 24.6495 1.06331 24.6003C1.08189 24.5511 1.09059 24.4988 1.08892 24.4463C1.15142 24.0963 1.23892 23.7838 1.28892 23.4338V23.0088V22.5963C1.28892 22.2588 1.11392 21.9713 1.06392 21.6213C1.07718 21.5729 1.0799 21.5223 1.0719 21.4728C1.0639 21.4234 1.04537 21.3762 1.01755 21.3345C0.989739 21.2928 0.953295 21.2575 0.910686 21.2311C0.868076 21.2048 0.820295 21.1878 0.770575 21.1815C0.720855 21.1752 0.670356 21.1796 0.622494 21.1945C0.574632 21.2093 0.530524 21.2343 0.493153 21.2677C0.455782 21.3011 0.426021 21.3422 0.405882 21.3881C0.385743 21.434 0.375697 21.4836 0.376423 21.5338C0.215102 21.8554 0.09338 22.1954 0.013923 22.5463C-0.00464099 22.6957 -0.00464099 22.8468 0.013923 22.9963C0.00162964 23.146 0.00162964 23.2965 0.013923 23.4463C0.013923 23.7963 0.188923 24.1088 0.276423 24.4463C0.274569 24.502 0.284393 24.5575 0.305263 24.6092C0.326134 24.661 0.35759 24.7077 0.397612 24.7466C0.437634 24.7854 0.485336 24.8155 0.537657 24.8348C0.589978 24.8541 0.645761 24.8623 0.701423 24.8588Z" fill="var(--fill-0, #7F5AF0)"/>
<path id="Vector_10" d="M14.1514 21.6213C14.1621 21.5303 14.1367 21.4387 14.0806 21.3663C14.0245 21.2938 13.9422 21.2462 13.8514 21.2338C13.8054 21.2267 13.7584 21.2289 13.7133 21.2402C13.6681 21.2516 13.6257 21.2718 13.5884 21.2997C13.5512 21.3277 13.5199 21.3628 13.4963 21.403C13.4728 21.4431 13.4576 21.4876 13.4514 21.5338C13.2937 21.8656 13.1721 22.2134 13.0889 22.5713C13.0766 22.721 13.0766 22.8715 13.0889 23.0213V23.4713C13.1639 23.8213 13.2764 24.1338 13.3639 24.4713C13.3536 24.5289 13.3561 24.588 13.3711 24.6445C13.3862 24.701 13.4134 24.7536 13.451 24.7984C13.4885 24.8433 13.5354 24.8794 13.5884 24.9041C13.6414 24.9289 13.6992 24.9417 13.7577 24.9417C13.8162 24.9417 13.874 24.9289 13.927 24.9041C13.98 24.8794 14.0269 24.8433 14.0644 24.7984C14.102 24.7536 14.1292 24.701 14.1443 24.6445C14.1593 24.588 14.1617 24.5289 14.1514 24.4713C14.2264 24.1213 14.3014 23.8088 14.3514 23.4588V23.0338C14.3638 22.8966 14.3638 22.7585 14.3514 22.6213C14.3139 22.2588 14.2014 21.9713 14.1514 21.6213Z" fill="var(--fill-0, #7F5AF0)"/>
</g>
</svg>
