<svg preserveAspectRatio="none" width="100%" height="100%" overflow="visible" style="display: block;" viewBox="0 0 26.5603 29.9998" fill="none" xmlns="http://www.w3.org/2000/svg">
<g id="Group">
<path id="Vector" fill-rule="evenodd" clip-rule="evenodd" d="M9.6418 25.6607C9.40261 25.3295 9.12104 25.0311 8.8043 24.7732C8.34168 24.4376 7.83201 24.1722 7.2918 23.9857C7.40579 23.9145 7.51441 23.8352 7.6168 23.7482C8.1986 23.3085 8.60831 22.6791 8.77496 21.9692C8.9416 21.2592 8.8547 20.5133 8.5293 19.8607C8.22775 19.1684 7.69957 18.5994 7.03164 18.2473C6.36372 17.8952 5.59583 17.7808 4.8543 17.9232C4.19346 18.0721 3.57423 18.3668 3.0418 18.7857C2.45661 19.2066 2.01917 19.8016 1.7918 20.4857C1.63737 20.9974 1.60671 21.5385 1.70233 22.0644C1.79795 22.5903 2.01712 23.086 2.3418 23.5107C2.52742 23.7195 2.74212 23.9005 2.9793 24.0482C2.69437 24.1239 2.41793 24.2286 2.1543 24.3607C1.70768 24.6339 1.3139 24.9854 0.991799 25.3982C0.695796 25.8045 0.467821 26.2562 0.316799 26.7357C0.0192897 27.6974 0.0500717 28.7308 0.404299 29.6732C0.435973 29.7686 0.502444 29.8486 0.590472 29.8973C0.6785 29.9459 0.781623 29.9596 0.879299 29.9357C0.976536 29.9066 1.0585 29.8406 1.10759 29.7518C1.15667 29.663 1.16896 29.5584 1.1418 29.4607C1.08174 28.8442 1.1718 28.2223 1.4043 27.6482C1.56723 27.2057 1.78564 26.7857 2.0543 26.3982C2.27126 26.0209 2.55505 25.6863 2.8918 25.4107C3.10476 25.2345 3.34015 25.0874 3.5918 24.9732C4.02566 24.7897 4.47277 24.6392 4.9293 24.5232C4.9906 24.5086 5.04802 24.4809 5.09764 24.4421C5.14726 24.4032 5.18791 24.3541 5.2168 24.2982C5.30744 24.2745 5.38593 24.2177 5.43683 24.1391C5.48772 24.0604 5.50733 23.9655 5.4918 23.8732C5.4707 23.7744 5.41185 23.6877 5.32779 23.6317C5.24373 23.5756 5.14111 23.5546 5.0418 23.5732C4.71408 23.6355 4.37565 23.6093 4.06144 23.4972C3.74722 23.3852 3.46859 23.1913 3.2543 22.9357C3.07464 22.6367 2.9695 22.299 2.94775 21.9509C2.92599 21.6028 2.98826 21.2546 3.1293 20.9357C3.30384 20.5587 3.57567 20.2351 3.9168 19.9982C4.29081 19.7248 4.71586 19.5293 5.1668 19.4232C5.60625 19.3264 6.06544 19.3797 6.47103 19.5746C6.87662 19.7694 7.20521 20.0946 7.4043 20.4982C7.64091 20.9066 7.73027 21.3838 7.65747 21.8501C7.58467 22.3165 7.35412 22.7438 7.0043 23.0607C6.89473 23.1592 6.77289 23.2433 6.6418 23.3107L6.1918 23.4732C5.9793 23.4732 5.7543 23.9607 5.7418 23.9732C5.71092 24.0842 5.72511 24.2029 5.78128 24.3036C5.83745 24.4042 5.93107 24.4786 6.0418 24.5107C6.73349 24.7902 7.35619 25.2167 7.8668 25.7607C8.07925 25.9761 8.27171 26.2104 8.4418 26.4607C8.61508 26.7071 8.76968 26.9661 8.9043 27.2357C9.24743 27.8889 9.40318 28.6244 9.3543 29.3607C9.34363 29.4091 9.3426 29.4591 9.35127 29.508C9.35995 29.5568 9.37815 29.6034 9.40485 29.6452C9.45877 29.7296 9.544 29.7891 9.6418 29.8107C9.7396 29.8322 9.84195 29.814 9.92634 29.7601C10.0107 29.7062 10.0703 29.621 10.0918 29.5232C10.4262 28.6299 10.4657 27.653 10.2043 26.7357C10.0764 26.3492 9.88641 25.9861 9.6418 25.6607Z" fill="var(--fill-0, #7F5AF0)"/>
<path id="Vector_2" fill-rule="evenodd" clip-rule="evenodd" d="M22.0919 25.6607C21.8518 25.3263 21.5656 25.0275 21.2419 24.7732C20.7838 24.4376 20.2783 24.1721 19.7419 23.9857C19.8419 23.9232 19.9669 23.8732 20.0669 23.7982C20.6468 23.3569 21.055 22.7277 21.2215 22.0183C21.388 21.309 21.3024 20.5638 20.9794 19.9107C20.676 19.2199 20.1476 18.6523 19.4801 18.3004C18.8127 17.9485 18.0458 17.8332 17.3044 17.9732C16.6427 18.1197 16.023 18.4146 15.4919 18.8357C14.9079 19.2579 14.4708 19.8524 14.2419 20.5357C14.0892 21.0484 14.0606 21.59 14.1584 22.116C14.2562 22.6419 14.4776 23.1371 14.8044 23.5607C14.9856 23.7692 15.1961 23.9502 15.4294 24.0982C15.1459 24.1782 14.8698 24.2827 14.6044 24.4107C14.1642 24.6876 13.7751 25.0386 13.4544 25.4482C13.1489 25.8486 12.9201 26.302 12.7794 26.7857C12.4751 27.7465 12.506 28.7822 12.8669 29.7232C12.896 29.8204 12.962 29.9024 13.0508 29.9514C13.1396 30.0005 13.2442 30.0128 13.3419 29.9857C13.4392 29.9566 13.5211 29.8906 13.5702 29.8018C13.6193 29.713 13.6316 29.6084 13.6044 29.5107C13.5408 28.8941 13.631 28.2713 13.8669 27.6982C14.0254 27.2561 14.2397 26.836 14.5044 26.4482C14.7296 26.0731 15.0171 25.7391 15.3544 25.4607C15.5635 25.2792 15.7997 25.1315 16.0544 25.0232C16.484 24.8397 16.927 24.6893 17.3794 24.5732C17.4414 24.5602 17.4996 24.5332 17.5494 24.4942C17.5993 24.4552 17.6395 24.4052 17.6669 24.3482C17.7591 24.3272 17.8395 24.271 17.8909 24.1916C17.9423 24.1122 17.9606 24.0159 17.9419 23.9232C17.9329 23.8747 17.9144 23.8285 17.8876 23.7873C17.8607 23.746 17.826 23.7104 17.7853 23.6825C17.7447 23.6547 17.699 23.6351 17.6508 23.6249C17.6026 23.6147 17.5529 23.6141 17.5044 23.6232C17.1541 23.6914 16.7916 23.6583 16.4595 23.5277C16.1273 23.397 15.8394 23.1743 15.6294 22.8857C15.4498 22.5867 15.3446 22.249 15.3229 21.9009C15.3011 21.5528 15.3634 21.2046 15.5044 20.8857C15.6815 20.4924 15.9679 20.1583 16.3294 19.9232C16.7022 19.6477 17.1277 19.452 17.5794 19.3482C18.0189 19.2514 18.4781 19.3047 18.8837 19.4996C19.2893 19.6945 19.6178 20.0196 19.8169 20.4232C20.0863 20.8284 20.2028 21.3162 20.1456 21.7994C20.0883 22.2826 19.8611 22.7296 19.5044 23.0607C19.397 23.1562 19.2796 23.24 19.1544 23.3107C18.8044 23.4732 18.4294 23.4357 18.2544 23.9732C18.2235 24.0842 18.2377 24.2029 18.2939 24.3036C18.3501 24.4042 18.4437 24.4786 18.5544 24.5107C19.2445 24.7933 19.8665 25.2194 20.3794 25.7607C20.5881 25.9794 20.7803 26.2134 20.9544 26.4607C21.1237 26.7073 21.2741 26.9664 21.4044 27.2357C21.7519 27.8877 21.912 28.6232 21.8669 29.3607C21.854 29.4092 21.8514 29.4598 21.8591 29.5095C21.8668 29.5591 21.8848 29.6065 21.9118 29.6488C21.9388 29.6911 21.9744 29.7274 22.0161 29.7552C22.0579 29.7831 22.105 29.802 22.1544 29.8107C22.252 29.8296 22.3531 29.8103 22.4369 29.7568C22.5206 29.7033 22.5806 29.6196 22.6044 29.5232C22.9348 28.6285 22.9698 27.6516 22.7044 26.7357C22.5612 26.3459 22.3542 25.9826 22.0919 25.6607Z" fill="var(--fill-0, #7F5AF0)"/>
<path id="Vector_3" fill-rule="evenodd" clip-rule="evenodd" d="M6.52923 5.63565C6.04173 5.86065 5.57923 6.06065 5.12923 6.32315C4.81887 6.50715 4.51845 6.70743 4.22923 6.92315C4.05461 7.05518 3.88767 7.19708 3.72923 7.34815C3.58779 7.49054 3.49578 7.67457 3.46673 7.87315C3.44304 8.03344 3.45915 8.19711 3.51365 8.3497C3.56814 8.5023 3.65935 8.63914 3.77923 8.74815C4.13402 9.00841 4.5153 9.23048 4.91673 9.41065L5.85423 9.76065C5.96198 9.79546 6.07914 9.78604 6.17994 9.73447C6.28074 9.6829 6.35692 9.5934 6.39173 9.48565C6.42654 9.37791 6.41713 9.26075 6.36555 9.15995C6.31398 9.05915 6.22448 8.98296 6.11673 8.94815L5.50423 8.43565C5.50423 8.43565 5.22923 8.24815 5.02923 8.09815L5.20423 8.01065L7.00423 6.24815C7.0684 6.1837 7.10785 6.09873 7.11569 6.00813C7.12352 5.91752 7.09923 5.82704 7.04708 5.75253C6.99493 5.67803 6.91823 5.62424 6.83041 5.60059C6.74259 5.57693 6.64925 5.58492 6.56673 5.62315L6.52923 5.63565Z" fill="var(--fill-0, #7F5AF0)"/>
<path id="Vector_4" fill-rule="evenodd" clip-rule="evenodd" d="M10.3045 3.41062C9.87947 4.13562 9.40447 4.81062 9.05447 5.54812C8.87947 5.86062 8.71697 6.19812 8.56697 6.53562C8.41697 6.87312 8.24197 7.38562 8.11697 7.78562C7.84197 8.78562 7.66697 9.79812 7.36697 10.7981C7.33391 10.8523 7.31302 10.9129 7.30574 10.976C7.29847 11.039 7.30498 11.1028 7.32484 11.1631C7.34469 11.2233 7.37741 11.2785 7.42073 11.3249C7.46405 11.3712 7.51692 11.4076 7.57569 11.4315C7.63446 11.4553 7.69772 11.4661 7.76109 11.4631C7.82445 11.4601 7.8864 11.4434 7.94265 11.4141C7.9989 11.3847 8.04809 11.3435 8.08683 11.2933C8.12556 11.243 8.15291 11.185 8.16697 11.1231C8.51697 10.4481 8.82947 9.76062 9.11697 9.06062C9.40447 8.36062 9.62947 7.68562 9.91697 7.01062L11.0045 3.74812C11.025 3.70226 11.0361 3.65276 11.0371 3.60254C11.0381 3.55232 11.029 3.50242 11.0103 3.45578C10.9917 3.40915 10.9638 3.36673 10.9285 3.33106C10.8931 3.29539 10.8509 3.26718 10.8045 3.24812C10.7165 3.20423 10.6147 3.19668 10.5212 3.22707C10.4277 3.25747 10.3499 3.32338 10.3045 3.41062Z" fill="var(--fill-0, #7F5AF0)"/>
<path id="Vector_5" fill-rule="evenodd" clip-rule="evenodd" d="M13.6044 8.9356C13.771 8.827 13.9223 8.69669 14.0544 8.5481C14.1788 8.41315 14.2839 8.26173 14.3669 8.0981C14.4187 7.97625 14.4379 7.84302 14.4225 7.71151C14.4072 7.58 14.3579 7.45476 14.2794 7.3481C14.0658 7.07416 13.8081 6.83761 13.5169 6.6481C12.9037 6.34981 12.2685 6.09907 11.6169 5.8981C11.5289 5.84771 11.4245 5.83389 11.3263 5.8596C11.2282 5.88531 11.144 5.9485 11.0919 6.0356C11.0653 6.07878 11.0477 6.12692 11.0402 6.1771C11.0327 6.22727 11.0355 6.27845 11.0483 6.32754C11.0612 6.37662 11.0838 6.42258 11.115 6.46264C11.1461 6.5027 11.1851 6.53603 11.2294 6.5606L12.3169 7.4356L12.7794 7.8231L12.3044 8.3231L11.4169 9.0356C11.3684 9.06601 11.3266 9.1059 11.2939 9.15288C11.2612 9.19985 11.2383 9.25295 11.2267 9.30898C11.215 9.36501 11.2148 9.42283 11.226 9.47895C11.2372 9.53508 11.2596 9.58836 11.2919 9.6356C11.3211 9.68369 11.3599 9.7253 11.4057 9.75787C11.4516 9.79044 11.5037 9.81328 11.5587 9.82499C11.6137 9.8367 11.6706 9.83702 11.7257 9.82595C11.7809 9.81488 11.8332 9.79264 11.8794 9.7606L12.9044 9.3106C13.1516 9.21327 13.3865 9.08742 13.6044 8.9356Z" fill="var(--fill-0, #7F5AF0)"/>
<path id="Vector_6" fill-rule="evenodd" clip-rule="evenodd" d="M16.5169 11.9231C17.7457 10.0128 18.2223 7.71455 17.8544 5.47311C17.646 4.56471 17.2489 3.71026 16.6891 2.96518C16.1292 2.2201 15.4189 1.60102 14.6044 1.14811C13.0062 0.222427 11.1506 -0.159214 9.31687 0.0606118C7.11446 0.247877 4.99078 0.968641 3.12937 2.16061C1.88079 3.04968 0.930753 4.29606 0.404369 5.73561C-0.175118 7.28748 -0.130311 9.00359 0.529369 10.5231C1.16656 12.0226 2.3446 13.2274 3.82937 13.8981C4.25747 14.0821 4.70673 14.2122 5.16687 14.2856C5.8249 14.3867 6.48879 14.4452 7.15437 14.4606C7.5333 14.4796 7.91294 14.4796 8.29187 14.4606H8.71687C8.80437 14.7356 8.90437 14.9981 8.96687 15.2731C9.10437 15.8606 9.21687 16.4481 9.30437 17.0481L9.50437 18.0606L9.67937 18.6606C9.66684 18.7013 9.66684 18.7449 9.67937 18.7856C9.72226 18.8674 9.7815 18.9396 9.85341 18.9976C9.92533 19.0556 10.0084 19.0983 10.0974 19.1229C10.1865 19.1475 10.2797 19.1535 10.3712 19.1407C10.4627 19.1278 10.5505 19.0963 10.6294 19.0481C10.8917 18.904 11.1148 18.6981 11.2794 18.4481C11.5141 18.0508 11.7108 17.6323 11.8669 17.1981L12.3294 15.7481L12.8419 14.2106C13.5913 14.1458 14.3148 13.9047 14.9535 13.5072C15.5921 13.1097 16.1278 12.5669 16.5169 11.9231ZM11.3044 15.3481L10.6919 16.5981L10.6044 16.7731C10.4294 16.2731 10.2544 15.7856 10.0419 15.2981C9.82937 14.8106 9.65437 14.4481 9.42937 14.0481C9.20437 13.6481 9.42937 14.0481 9.42937 13.9731C9.42937 13.8981 9.42937 13.9731 9.35437 13.9731C9.30626 13.921 9.24344 13.8847 9.17423 13.8691C9.10503 13.8534 9.03272 13.8592 8.96687 13.8856C8.72458 13.8695 8.48524 13.8233 8.25437 13.7481C7.89187 13.7481 7.52937 13.6856 7.16687 13.6606C6.54212 13.6226 5.92019 13.5475 5.30437 13.4356C4.92028 13.3541 4.54695 13.2282 4.19187 13.0606C2.98366 12.435 2.05538 11.3773 1.59187 10.0981C1.11131 8.85725 1.12473 7.47938 1.62937 6.24811C2.22227 4.76493 3.3386 3.55074 4.76687 2.83561C6.2564 2.11809 7.85952 1.66549 9.50437 1.49811C11.031 1.29782 12.5816 1.59129 13.9294 2.33561C14.6009 2.67734 15.1929 3.15674 15.6667 3.74256C16.1405 4.32839 16.4856 5.0075 16.6794 5.73561C16.9899 7.34903 16.8024 9.01873 16.1419 10.5231C15.8922 11.2603 15.4438 11.9143 14.846 12.4128C14.2483 12.9113 13.5244 13.2349 12.7544 13.3481C12.6466 13.3073 12.527 13.3106 12.4217 13.3575C12.3164 13.4043 12.2338 13.4907 12.1919 13.5981L11.3044 15.3481Z" fill="var(--fill-0, #7F5AF0)"/>
<path id="Vector_7" fill-rule="evenodd" clip-rule="evenodd" d="M26.317 7.97315C26.0834 7.03361 25.6578 6.15262 25.067 5.38565C24.4837 4.61391 23.7038 4.01301 22.8089 3.64579C21.9139 3.27857 20.9367 3.15851 19.9795 3.29815C19.9254 3.30066 19.8725 3.31486 19.8243 3.33978C19.7762 3.36471 19.7341 3.39976 19.7008 3.44252C19.6676 3.48529 19.644 3.53476 19.6317 3.58752C19.6193 3.64028 19.6186 3.69508 19.6295 3.74815C19.6308 3.79921 19.6428 3.84943 19.6649 3.89551C19.6869 3.94159 19.7184 3.9825 19.7574 4.01554C19.7963 4.04859 19.8418 4.07303 19.8909 4.08727C19.9399 4.1015 19.9914 4.10521 20.042 4.09815C20.8286 4.08331 21.6055 4.2738 22.296 4.65083C22.9865 5.02787 23.5667 5.57841 23.9795 6.24815C24.4021 6.89954 24.7107 7.61814 24.892 8.37315C25.0999 9.12543 25.1551 9.9117 25.0545 10.6857C24.9627 11.5121 24.6663 12.3026 24.192 12.9857C23.7251 13.6708 23.0293 14.1671 22.2295 14.3857C22.1196 14.4125 22.0243 14.4808 21.9637 14.5764C21.9031 14.672 21.8819 14.7873 21.9045 14.8982C21.9045 14.8982 21.9045 14.9732 21.9795 15.0107C21.8822 14.9681 21.7728 14.9624 21.6716 14.9946C21.5704 15.0268 21.4843 15.0947 21.4295 15.1857L20.767 16.1732L20.6545 16.2982C20.6333 16.0228 20.583 15.7504 20.5045 15.4857C20.4538 15.2505 20.3512 15.0297 20.2041 14.8394C20.0571 14.649 19.8693 14.494 19.6545 14.3857C19.4654 14.3051 19.2576 14.2791 19.0545 14.3107C18.767 14.3107 18.3795 14.5357 18.192 14.5607C17.8654 14.6207 17.5358 14.6625 17.2045 14.6857L15.642 14.7607C15.5917 14.7573 15.5413 14.7641 15.4937 14.7806C15.4461 14.7971 15.4023 14.8231 15.365 14.8569C15.3277 14.8908 15.2975 14.9318 15.2764 14.9775C15.2553 15.0233 15.2436 15.0728 15.242 15.1232C15.2416 15.2231 15.2785 15.3195 15.3456 15.3935C15.4127 15.4675 15.505 15.5138 15.6045 15.5232L18.267 15.8357C19.3045 15.8357 18.8295 14.6732 19.517 17.7982C19.517 17.9232 20.067 18.5607 20.617 18.0732C20.8045 17.8982 21.267 17.3982 21.292 17.3607L21.6795 16.7482L22.2295 15.6107C22.2694 15.547 22.2906 15.4733 22.2906 15.3982C22.2906 15.323 22.2694 15.2493 22.2295 15.1857C22.3154 15.2097 22.4062 15.2097 22.492 15.1857C23.5289 14.9947 24.4639 14.4408 25.1295 13.6232C25.8044 12.8255 26.2685 11.8715 26.4795 10.8482C26.627 9.889 26.5717 8.90957 26.317 7.97315Z" fill="var(--fill-0, #7F5AF0)"/>
</g>
</svg>
