<svg preserveAspectRatio="none" width="100%" height="100%" overflow="visible" style="display: block;" viewBox="0 0 38 38" fill="none" xmlns="http://www.w3.org/2000/svg">
<g id="Frame 40">
<rect width="38" height="38" fill="#16161A" fill-opacity="0.64"/>
<path id="Vector" d="M32.6105 26.4461C31.8455 24.6025 30.5817 23.0146 28.9642 21.8647C28.0388 21.2136 27.0397 20.6767 25.9882 20.2652C27.2387 19.0557 28.111 17.5019 28.497 15.7962C28.883 14.0905 28.7658 12.3077 28.1599 10.6687C27.3222 8.22835 25.5764 6.21454 23.2933 5.05528C21.0103 3.89602 18.3702 3.68273 15.9341 4.46072C14.3381 4.96042 12.9052 5.88665 11.7868 7.14158C10.6684 8.39651 9.90586 9.93356 9.57985 11.5904C9.17375 13.1881 9.19036 14.8658 9.62801 16.455C10.0657 18.0442 10.9089 19.4891 12.0733 20.6448L12.261 20.8074C11.585 21.0925 10.9308 21.4278 10.3037 21.8105C9.51711 22.3245 8.78882 22.9245 8.13205 23.5997C7.46197 24.2983 6.86038 25.0609 6.33571 25.8768C5.23502 27.6776 4.45466 29.6594 4.02996 31.7323C3.97112 31.9551 3.99962 32.1923 4.10952 32.3943C4.21942 32.5963 4.40223 32.7476 4.6198 32.8167C4.83668 32.8846 5.07133 32.8628 5.27235 32.7561C5.47337 32.6494 5.62436 32.4665 5.69224 32.2474C6.3988 30.4976 7.3564 28.8625 8.53422 27.3949C9.01681 26.7985 9.55304 26.2292 10.1161 25.6599C10.6791 25.0906 11.1885 24.6027 11.8052 24.0876C12.653 23.3584 13.5487 22.6882 14.4863 22.0816C14.7204 22.1701 14.963 22.2337 15.2102 22.2713C16.9031 22.5843 18.6381 22.5843 20.3311 22.2713C20.4656 22.2475 20.5922 22.1905 20.6998 22.1054C20.8074 22.0203 20.8925 21.9097 20.9477 21.7834C20.9126 21.8981 20.9126 22.021 20.9477 22.1358C21.0314 22.3463 21.1934 22.5153 21.3989 22.6065C21.6044 22.6977 21.837 22.7039 22.047 22.6237C22.699 22.3857 23.3273 22.0862 23.9238 21.7291C25.0191 22.4308 26.0509 23.2291 27.007 24.1147C27.578 24.6591 28.1152 25.2385 28.6157 25.8497C29.1253 26.46 29.5828 27.1129 29.9831 27.8015C30.9355 29.5231 31.7083 31.3401 32.2888 33.2233C32.3015 33.3451 32.3395 33.4629 32.4004 33.5687C32.4614 33.6746 32.5438 33.7662 32.6422 33.8376C32.7407 33.9089 32.8529 33.9584 32.9717 33.9827C33.0904 34.007 33.2129 34.0057 33.331 33.9787C33.4492 33.9517 33.5603 33.8997 33.6572 33.8262C33.7541 33.7527 33.8344 33.6592 33.893 33.552C33.9516 33.4448 33.9871 33.3263 33.9971 33.2042C34.0071 33.0821 33.9914 32.9593 33.9511 32.8438C33.8034 30.6582 33.3521 28.5045 32.6105 26.4461ZM21.618 21.0243C21.5014 21.0704 21.397 21.1435 21.3132 21.2376C21.2294 21.3317 21.1685 21.4444 21.1354 21.5665V21.4309C21.1223 21.3308 21.0896 21.2344 21.0391 21.1472C20.9887 21.0601 20.9215 20.984 20.8416 20.9234C20.7617 20.8628 20.6707 20.8189 20.5738 20.7944C20.4769 20.7698 20.3762 20.765 20.2775 20.7803C9.87477 21.8376 12.0733 13.0272 12.0733 12.3223C12.3263 11.168 12.876 10.1015 13.6668 9.23049C14.4576 8.35949 15.4616 7.71478 16.5775 7.36138C18.3399 6.75471 20.2654 6.85519 21.9566 7.64211C23.6478 8.42902 24.9758 9.84232 25.6665 11.5904C26.016 12.4705 26.1884 13.4123 26.1735 14.3606C26.1587 15.3089 25.9568 16.2446 25.5798 17.1131C25.2028 17.9815 24.6582 18.7652 23.9779 19.4181C23.2976 20.0711 22.4953 20.5803 21.618 20.9159V21.0243Z" fill="var(--fill-0, #7F5AF0)"/>
</g>
</svg>
