<svg preserveAspectRatio="none" width="100%" height="100%" overflow="visible" style="display: block;" viewBox="0 0 28.0531 30.0777" fill="none" xmlns="http://www.w3.org/2000/svg">
<g id="Group">
<path id="Vector" d="M28.046 20.714L27.971 19.964C27.9217 19.73 27.821 19.5099 27.6761 19.3197C27.5313 19.1294 27.3459 18.9738 27.1335 18.864C26.2717 18.5823 25.3604 18.4844 24.4585 18.5765C20.921 18.5765 2.99598 18.489 2.99598 18.489C2.99598 18.489 3.38348 15.589 3.47098 14.1765C3.47098 13.5765 3.47098 12.9265 3.54598 12.3765C3.62098 11.8265 3.54598 11.1265 3.54598 10.5765C3.54598 9.214 3.40848 7.864 3.32098 6.514C5.39365 6.24289 7.48076 6.09679 9.57098 6.0765C11.596 6.0765 13.6585 6.0765 15.7085 6.189C18.846 6.289 21.9585 6.389 24.9585 6.539C24.9898 7.04268 24.9898 7.54782 24.9585 8.0515C24.9585 8.864 24.8335 9.689 24.771 10.5515C24.771 11.1265 24.7085 11.689 24.7085 12.2515C24.7085 12.814 24.7085 13.414 24.7835 14.0015C24.8835 15.3515 25.0835 16.6765 25.1585 18.0265C25.1568 18.0719 25.1643 18.1171 25.1805 18.1595C25.1967 18.2019 25.2213 18.2406 25.2528 18.2733C25.2843 18.3059 25.3221 18.3319 25.3639 18.3497C25.4057 18.3674 25.4506 18.3765 25.496 18.3765C25.5867 18.3766 25.6739 18.3414 25.7392 18.2784C25.8044 18.2155 25.8427 18.1296 25.846 18.039C25.9335 16.8765 25.996 15.714 26.0085 14.539V12.239V8.689C25.9884 7.80498 25.9048 6.92355 25.7585 6.0515C25.421 5.264 19.796 5.2265 17.096 5.0265C16.4585 5.0265 15.846 4.9515 15.1585 4.9265C15.271 4.314 15.271 3.7515 15.271 3.1765C15.2878 2.66445 15.2416 2.15227 15.1335 1.6515L14.8585 0.876496C14.2835 -0.148504 13.6085 -0.0985039 13.221 0.151496C13.0013 0.286252 12.8204 0.475777 12.696 0.701496C12.5232 1.05536 12.381 1.42337 12.271 1.8015L12.0835 3.0515C12.0564 3.46772 12.0564 3.88527 12.0835 4.3015C12.0835 4.5015 12.0835 4.689 12.146 4.8765H11.7835C8.80089 4.91883 5.82912 5.2453 2.90848 5.8515C2.44598 5.939 2.48348 6.489 2.29598 10.6265C2.29598 11.2265 2.29598 11.8765 2.23348 12.414C2.17098 12.9515 2.23348 13.664 2.23348 14.214C2.23348 15.614 2.35848 18.489 2.37098 18.539H2.08348C1.59056 18.5474 1.10008 18.6103 0.620981 18.7265C0.483639 18.7634 0.359352 18.838 0.262162 18.9418C0.164971 19.0456 0.0987503 19.1745 0.070981 19.314C-0.0236603 19.8809 -0.0236603 20.4596 0.070981 21.0265C0.156813 21.525 0.429502 21.972 0.833481 22.2765C1.06543 22.4263 1.3327 22.5125 1.60848 22.5265H2.85848H5.27098C5.27098 22.6515 5.15848 22.764 5.12098 22.889C4.85848 23.5515 4.65848 24.2265 4.43348 24.889L3.85848 26.814C3.66674 27.4061 3.54508 28.0186 3.49598 28.639C3.4782 28.8528 3.50575 29.068 3.57683 29.2705C3.64791 29.473 3.76092 29.6582 3.90848 29.814C4.20848 30.089 4.75848 30.264 5.64598 29.739L6.09598 29.389L6.78348 28.5765C7.26964 27.7798 7.68778 26.9435 8.03348 26.0765C8.13348 25.8515 8.19598 25.639 8.28348 25.414L11.8835 25.7015C12.446 25.7015 13.021 25.764 13.596 25.7765H15.271C16.6085 25.7765 17.946 25.7765 19.296 25.7015H19.3585C19.3585 25.7765 19.3585 25.8515 19.421 25.914C19.6942 26.7683 20.0241 27.6035 20.4085 28.414C20.6124 28.8177 20.8643 29.1954 21.1585 29.539C21.3669 29.7795 21.6476 29.9461 21.9585 30.014C22.3585 30.014 22.871 29.9515 23.1335 29.089L23.371 27.9265L23.2835 26.5015L22.8835 24.6015L22.221 22.339C26.5335 22.2515 27.696 22.339 27.946 21.6515C28.0354 21.3475 28.0692 21.03 28.046 20.714ZM12.946 4.264C12.946 3.9015 13.046 3.5515 13.121 3.1765L13.446 2.189C13.5085 2.014 13.596 1.6515 13.696 1.439V1.514L13.921 1.989C14.0576 2.39448 14.1498 2.81361 14.196 3.239C14.2585 3.7765 14.271 4.314 14.296 4.8515H12.921C12.9157 4.65532 12.9241 4.45901 12.946 4.264ZM5.67098 27.7765L5.14598 28.3515L4.92098 28.539L4.69598 28.6765V28.314C4.73976 27.8932 4.81074 27.4756 4.90848 27.064L5.29598 25.114C5.44598 24.439 5.58348 23.764 5.77098 23.114C5.77098 22.9015 5.89598 22.7015 5.95848 22.489H8.40848C8.00686 23.5365 7.5521 24.5628 7.04598 25.564C6.64759 26.3371 6.18778 27.077 5.67098 27.7765ZM15.3585 24.464C14.7835 24.464 14.2085 24.389 13.6335 24.364C13.0585 24.339 12.4835 24.364 11.9085 24.364C10.796 24.364 9.69598 24.464 8.58348 24.5515C8.83348 23.839 9.08348 23.139 9.29598 22.439C12.0085 22.439 14.7335 22.439 17.446 22.339H18.546C18.7335 23.189 18.9335 24.0265 19.171 24.839C17.896 24.7015 16.6335 24.564 15.3585 24.464ZM21.6085 23.214C21.7085 23.714 21.8085 24.214 21.8835 24.714L22.1085 26.5265V27.7765L21.921 28.5265C21.7862 28.2792 21.6651 28.0247 21.5585 27.764C21.0576 26.8265 20.6272 25.853 20.271 24.8515C19.9335 24.014 19.6335 23.1515 19.3585 22.289H21.4835L21.6085 23.214ZM27.246 21.2515C27.2511 21.2972 27.2511 21.3433 27.246 21.389H19.421C15.4585 21.364 11.521 21.2515 7.50848 21.2515H2.84598H1.59598C1.51334 21.1703 1.44846 21.0728 1.40542 20.9652C1.36239 20.8576 1.34215 20.7423 1.34598 20.6265C1.32097 20.4106 1.32097 20.1924 1.34598 19.9765L2.09598 19.9015C3.18348 19.9015 4.25848 19.9765 5.34598 20.0015H6.78348C9.71681 19.8765 12.6668 19.7848 15.6335 19.7265C18.6001 19.6682 21.5501 19.6265 24.4835 19.6015C25.1608 19.5303 25.8437 19.5303 26.521 19.6015C26.6868 19.6349 26.8396 19.715 26.9614 19.8324C27.0832 19.9498 27.1689 20.0995 27.2085 20.264V20.814C27.2301 20.9589 27.2426 21.105 27.246 21.2515Z" fill="var(--fill-0, #7F5AF0)"/>
<path id="Vector_2" d="M11.5209 14.5015C11.6698 14.8743 11.9424 15.1845 12.2928 15.3803C12.6433 15.576 13.0504 15.6453 13.4459 15.5765C14.2777 15.5281 15.0792 15.2466 15.7584 14.764C17.1209 13.814 18.0834 12.1515 19.2584 11.1015C19.6162 10.7673 20.0429 10.5155 20.5084 10.364C20.7096 10.2768 20.9294 10.2415 21.1477 10.2611C21.3661 10.2808 21.576 10.3548 21.7584 10.4765C21.84 10.5369 21.942 10.5628 22.0425 10.5488C22.143 10.5348 22.234 10.4819 22.2959 10.4015C22.3584 10.3194 22.3868 10.2164 22.3752 10.1139C22.3635 10.0114 22.3127 9.91742 22.2334 9.85148C22.0132 9.68326 21.7613 9.56114 21.4929 9.49242C21.2244 9.42369 20.9449 9.40977 20.6709 9.45148C19.927 9.57077 19.2281 9.8857 18.6459 10.364C17.5459 11.2515 16.6459 12.5015 15.5334 13.3515C14.9277 13.9027 14.1511 14.2293 13.3334 14.2765C13.2452 14.293 13.1543 14.2899 13.0674 14.2674C12.9805 14.2449 12.8996 14.2035 12.8304 14.1463C12.7612 14.089 12.7055 14.0173 12.6671 13.9361C12.6288 13.8549 12.6087 13.7663 12.6084 13.6765C12.6263 12.6664 12.7224 11.6592 12.8959 10.664C12.9115 10.3869 12.8721 10.1094 12.7798 9.84768C12.6876 9.58592 12.5443 9.34505 12.3584 9.13898C12.1339 8.92898 11.8493 8.7944 11.5445 8.75406C11.2397 8.71371 10.9299 8.76963 10.6584 8.91398L9.65842 9.40148C9.39592 9.55148 9.13342 9.71398 8.89592 9.87648C8.64814 10.0551 8.41029 10.247 8.18342 10.4515C7.89024 10.7216 7.61858 11.0141 7.37092 11.3265C7.12092 11.6265 6.88342 11.939 6.65842 12.264C6.6227 12.3371 6.6136 12.4204 6.63267 12.4996C6.65174 12.5787 6.6978 12.6487 6.76292 12.6976C6.82804 12.7464 6.90815 12.771 6.98946 12.7672C7.07077 12.7633 7.1482 12.7313 7.20842 12.6765C7.44592 12.3765 7.68342 12.1015 7.93342 11.8265C8.18483 11.5607 8.45198 11.3102 8.73342 11.0765C8.94015 10.9164 9.15729 10.7703 9.38342 10.639C9.61425 10.5017 9.85207 10.3765 10.0959 10.264L11.0084 9.88898C11.2584 9.81398 11.4459 9.80148 11.5584 9.88898C11.6872 10.1073 11.7317 10.3652 11.6834 10.614C11.6834 11.089 11.4209 11.864 11.3209 12.7015C11.2353 13.3088 11.3041 13.9278 11.5209 14.5015Z" fill="var(--fill-0, #7F5AF0)"/>
</g>
</svg>
