<svg xmlns="http://www.w3.org/2000/svg" viewBox="0 0 520 640" role="img" aria-labelledby="title desc">
  <title id="title">Joao Silva portrait placeholder</title>
  <desc id="desc">A local placeholder portrait used until the final image is added to the repository.</desc>
  <defs>
    <linearGradient id="bg" x1="0%" x2="100%" y1="0%" y2="100%">
      <stop offset="0%" stop-color="#16122b"/>
      <stop offset="100%" stop-color="#3b2f67"/>
    </linearGradient>
  </defs>
  <rect width="520" height="640" rx="40" fill="url(#bg)"/>
  <circle cx="260" cy="214" r="88" fill="#f2d7b5"/>
  <path d="M164 398c0-54 43-98 96-98h0c53 0 96 44 96 98v81H164v-81Z" fill="#f2d7b5"/>
  <path d="M183 190c0-52 34-102 77-102 35 0 64 25 78 61 6 16 8 33 8 51-18-7-36-10-57-10-56 0-84 21-106 40Z" fill="#1d1428"/>
  <rect x="104" y="470" width="312" height="94" rx="28" fill="#ffffff" fill-opacity="0.12"/>
  <text x="260" y="516" fill="#ffffff" font-family="Georgia, serif" font-size="36" font-weight="700" text-anchor="middle">Joao Silva</text>
  <text x="260" y="548" fill="#ddd8ff" font-family="Arial, Helvetica, sans-serif" font-size="18" text-anchor="middle">Product Designer</text>
</svg>
