<svg xmlns="http://www.w3.org/2000/svg" viewBox="0 0 660 370" role="img" aria-labelledby="title desc">
  <title id="title">Knight case study cover</title>
  <desc id="desc">A local placeholder cover for the Knight project.</desc>
  <defs>
    <linearGradient id="bg" x1="0%" x2="100%" y1="0%" y2="100%">
      <stop offset="0%" stop-color="#171717"/>
      <stop offset="100%" stop-color="#494949"/>
    </linearGradient>
  </defs>
  <rect width="660" height="370" fill="url(#bg)" rx="28"/>
  <circle cx="111" cy="97" r="74" fill="#ffffff" fill-opacity="0.06"/>
  <circle cx="567" cy="296" r="88" fill="#ffffff" fill-opacity="0.08"/>
  <path d="M209 281c0-41 23-59 44-75 18-14 34-25 34-48 0-17-11-34-29-47-10-7-15-18-13-30 2-15 16-29 42-44l18 22c-14 9-19 16-20 20 0 2 2 5 6 8 29 20 46 50 46 79 0 49-31 73-53 89-14 11-25 19-25 34v10h106v32H209v-30Z" fill="#ffffff"/>
  <text x="392" y="159" fill="#ffffff" font-family="Georgia, serif" font-size="46" font-weight="700">Knight</text>
  <text x="392" y="192" fill="#d8d8d8" font-family="Arial, Helvetica, sans-serif" font-size="20">Structured learning for chess improvement</text>
  <rect x="392" y="225" width="150" height="36" rx="18" fill="#ffffff" fill-opacity="0.14"/>
  <text x="420" y="248" fill="#ffffff" font-family="Arial, Helvetica, sans-serif" font-size="16">Closed beta</text>
</svg>
