<svg xmlns="http://www.w3.org/2000/svg" viewBox="0 0 660 370" role="img" aria-labelledby="title desc">
  <title id="title">VisitPlann case study cover</title>
  <desc id="desc">A local placeholder cover for the VisitPlann project.</desc>
  <defs>
    <linearGradient id="bg" x1="0%" x2="100%" y1="0%" y2="100%">
      <stop offset="0%" stop-color="#1f6feb"/>
      <stop offset="100%" stop-color="#0d1b3d"/>
    </linearGradient>
    <linearGradient id="card" x1="0%" x2="100%" y1="0%" y2="100%">
      <stop offset="0%" stop-color="#ffffff" stop-opacity="0.22"/>
      <stop offset="100%" stop-color="#ffffff" stop-opacity="0.08"/>
    </linearGradient>
  </defs>
  <rect width="660" height="370" fill="url(#bg)" rx="28"/>
  <circle cx="535" cy="78" r="95" fill="#8cd5ff" fill-opacity="0.22"/>
  <circle cx="102" cy="328" r="110" fill="#91f7d0" fill-opacity="0.15"/>
  <rect x="42" y="46" width="260" height="278" rx="28" fill="url(#card)" stroke="#ffffff" stroke-opacity="0.18"/>
  <rect x="69" y="79" width="206" height="22" rx="11" fill="#ffffff" fill-opacity="0.92"/>
  <rect x="69" y="116" width="166" height="14" rx="7" fill="#dceaff" fill-opacity="0.9"/>
  <rect x="69" y="149" width="188" height="14" rx="7" fill="#dceaff" fill-opacity="0.65"/>
  <rect x="69" y="214" width="92" height="64" rx="18" fill="#8cd5ff" fill-opacity="0.45"/>
  <path d="M444 88c-52 0-94 42-94 94 0 62 94 146 94 146s94-84 94-146c0-52-42-94-94-94Zm0 128a34 34 0 1 1 0-68 34 34 0 0 1 0 68Z" fill="#fff"/>
  <text x="350" y="266" fill="#ffffff" font-family="Georgia, serif" font-size="44" font-weight="700">VisitPlann</text>
  <text x="350" y="298" fill="#dceaff" font-family="Arial, Helvetica, sans-serif" font-size="20">Tourism route planning and discovery</text>
</svg>
